# xmcd CD database file
#
# Track frame offsets:
#	150
#	19657
#	38270
#	64457
#	90480
#	112035
#	124800
#	152515
#	161765
#	182245
#	194167
#	212182
#
# Disc length: 3054 seconds
#
# Revision: 0
# Processed by: cddbd v1.5PL3 Copyright (c) Steve Scherf et al.
# Submitted via: CDex 1.40Release
#
DISCID=a60bec0c
DTITLE=HIRTH MARTINEZ - I'M NOT LIKE I WAS BEFORE
DYEAR=1998
DGENRE=Folk
TTITLE0=OLD FRIENDS
TTITLE1=5/4 SAMBA
TTITLE2=I'M NOT LIKE I WAS BEFORE
TTITLE3=SOMETIMES/ALWAYS
TTITLE4=THE GIRL
TTITLE5=BUSY MAN
TTITLE6=FOR THE MOMENT
TTITLE7=THESE DAYS
TTITLE8=SOMEWHERE IN THE POWER OF HER LOVE
TTITLE9=LONELY AND BLUE
TTITLE10=SLOWLY
TTITLE11=ALL THINGS POSSIBLE
EXTD=YEAR: 1998 ID3G: 80
EXTT0=
EXTT1=
EXTT2=
EXTT3=
EXTT4=
EXTT5=
EXTT6=
EXTT7=
EXTT8=
EXTT9=
EXTT10=
EXTT11=
PLAYORDER=
